<svg width="226" height="226" viewBox="0 0 226 226" fill="none" xmlns="http://www.w3.org/2000/svg">
<rect width="225.245" height="225.245" rx="34.7234" fill="#017802"/>
<path d="M76.9913 88.1192H83.665C84.6649 88.1192 85.5685 88.3301 86.3758 88.7521C87.1922 89.1649 87.8389 89.7704 88.316 90.5685C88.793 91.3666 89.0315 92.3344 89.0315 93.4719C89.0315 94.6002 88.8159 95.5314 88.3848 96.2652C87.9536 96.9991 87.4353 97.5495 86.8299 97.9165C86.2244 98.2834 85.6602 98.4898 85.1373 98.5357L89.6094 106.283H86.3482L82.2202 98.7558H79.8809V106.283H76.9913V88.1192ZM79.8809 96.6643H82.633C83.6054 96.6643 84.4218 96.4212 85.0823 95.935C85.7428 95.4488 86.073 94.6553 86.073 93.5545C86.073 92.4445 85.7474 91.6555 85.0961 91.1877C84.4447 90.7198 83.6329 90.4859 82.6605 90.4859H79.8809V96.6643ZM101.51 106.283V104.191C101.437 104.411 101.226 104.714 100.877 105.099C100.538 105.485 100.07 105.833 99.4736 106.145C98.8865 106.457 98.1893 106.613 97.382 106.613C96.3271 106.613 95.3776 106.361 94.5337 105.856C93.6897 105.352 93.0246 104.65 92.5384 103.751C92.0522 102.852 91.8091 101.815 91.8091 100.641C91.8091 99.4668 92.0522 98.4302 92.5384 97.5312C93.0246 96.6322 93.6897 95.9304 94.5337 95.4259C95.3776 94.9121 96.3271 94.6553 97.382 94.6553C98.171 94.6553 98.8544 94.7929 99.4323 95.0681C100.01 95.3433 100.474 95.6598 100.822 96.0176C101.18 96.3753 101.4 96.6872 101.483 96.9533V94.9855H104.4V106.283H101.51ZM94.7126 100.641C94.7126 101.366 94.8731 101.999 95.1942 102.54C95.5152 103.081 95.9326 103.499 96.4463 103.792C96.9692 104.086 97.5288 104.232 98.1251 104.232C98.7672 104.232 99.336 104.081 99.8314 103.778C100.336 103.476 100.73 103.058 101.015 102.526C101.308 101.985 101.455 101.357 101.455 100.641C101.455 99.9255 101.308 99.3017 101.015 98.7696C100.73 98.2284 100.336 97.8064 99.8314 97.5037C99.336 97.1918 98.7672 97.0358 98.1251 97.0358C97.5288 97.0358 96.9692 97.1872 96.4463 97.4899C95.9326 97.7835 95.5152 98.2008 95.1942 98.7421C94.8731 99.2833 94.7126 99.9163 94.7126 100.641ZM111.913 94.6553C112.546 94.6553 113.133 94.7149 113.675 94.8342C114.216 94.9534 114.679 95.0956 115.064 95.2607C115.45 95.4259 115.716 95.5635 115.863 95.6735L114.789 97.4899C114.606 97.334 114.276 97.1551 113.798 96.9533C113.331 96.7514 112.803 96.6505 112.216 96.6505C111.629 96.6505 111.134 96.756 110.73 96.967C110.326 97.178 110.124 97.4945 110.124 97.9165C110.124 98.3293 110.335 98.6595 110.757 98.9072C111.189 99.1549 111.771 99.3613 112.505 99.5264C113.11 99.664 113.688 99.8567 114.239 100.104C114.789 100.343 115.239 100.687 115.587 101.136C115.945 101.577 116.124 102.168 116.124 102.911C116.124 103.618 115.973 104.21 115.67 104.687C115.376 105.154 114.982 105.53 114.486 105.815C113.991 106.099 113.441 106.301 112.835 106.42C112.239 106.549 111.638 106.613 111.033 106.613C110.29 106.613 109.625 106.54 109.037 106.393C108.459 106.246 107.978 106.076 107.593 105.884C107.207 105.682 106.932 105.512 106.767 105.375L107.84 103.338C108.079 103.567 108.469 103.81 109.01 104.067C109.551 104.315 110.157 104.439 110.826 104.439C111.542 104.439 112.115 104.301 112.546 104.026C112.977 103.751 113.193 103.384 113.193 102.925C113.193 102.586 113.088 102.311 112.877 102.1C112.675 101.889 112.395 101.719 112.037 101.59C111.679 101.462 111.28 101.347 110.84 101.246C110.427 101.146 110.01 101.017 109.588 100.861C109.175 100.696 108.794 100.485 108.446 100.228C108.097 99.9622 107.817 99.6319 107.606 99.2375C107.395 98.843 107.29 98.3797 107.29 97.8477C107.29 97.1688 107.505 96.5909 107.937 96.1139C108.368 95.6369 108.937 95.2745 109.643 95.0268C110.349 94.7791 111.106 94.6553 111.913 94.6553ZM125.897 94.9855H129.351L123.668 100.366L129.778 106.283H126.269L121.301 101.425V106.283H118.357V87.3486H121.301V99.2925L125.897 94.9855ZM131.238 106.283V87.3486H134.183V96.9533C134.247 96.678 134.462 96.3616 134.829 96.0038C135.196 95.646 135.687 95.3341 136.302 95.0681C136.916 94.7929 137.618 94.6553 138.407 94.6553C139.471 94.6553 140.411 94.9121 141.228 95.4259C142.044 95.9304 142.682 96.6322 143.141 97.5312C143.608 98.4302 143.842 99.4668 143.842 100.641C143.842 101.815 143.608 102.852 143.141 103.751C142.682 104.65 142.044 105.352 141.228 105.856C140.411 106.361 139.471 106.613 138.407 106.613C137.682 106.613 137.017 106.48 136.412 106.214C135.815 105.939 135.32 105.613 134.926 105.237C134.531 104.861 134.27 104.512 134.141 104.191V106.283H131.238ZM140.939 100.641C140.939 99.9163 140.788 99.2833 140.485 98.7421C140.182 98.2008 139.783 97.7835 139.288 97.4899C138.792 97.1872 138.246 97.0358 137.65 97.0358C137.008 97.0358 136.426 97.1918 135.903 97.5037C135.38 97.8064 134.962 98.2284 134.65 98.7696C134.339 99.3017 134.183 99.9255 134.183 100.641C134.183 101.357 134.339 101.985 134.65 102.526C134.962 103.058 135.38 103.476 135.903 103.778C136.426 104.081 137.008 104.232 137.65 104.232C138.246 104.232 138.792 104.086 139.288 103.792C139.783 103.499 140.182 103.081 140.485 102.54C140.788 101.999 140.939 101.366 140.939 100.641ZM146.214 106.283V94.9855H149.145V106.283H146.214ZM147.714 91.6005C147.219 91.6005 146.792 91.4216 146.434 91.0639C146.086 90.7061 145.911 90.2795 145.911 89.7842C145.911 89.2888 146.086 88.8622 146.434 88.5044C146.792 88.1375 147.219 87.954 147.714 87.954C148.044 87.954 148.347 88.0412 148.622 88.2155C148.906 88.3806 149.131 88.6008 149.296 88.876C149.471 89.142 149.558 89.4447 149.558 89.7842C149.558 90.2795 149.379 90.7061 149.021 91.0639C148.663 91.4216 148.228 91.6005 147.714 91.6005ZM159.335 94.6553C160.096 94.6553 160.835 94.8112 161.55 95.1231C162.266 95.435 162.853 95.935 163.311 96.623C163.779 97.3018 164.013 98.1871 164.013 99.2787V106.283H161.055V99.8154C161.055 98.7971 160.812 98.0495 160.325 97.5725C159.848 97.0863 159.229 96.8432 158.468 96.8432C157.963 96.8432 157.482 96.9854 157.023 97.2697C156.564 97.5541 156.188 97.9394 155.895 98.4256C155.61 98.9118 155.468 99.4714 155.468 100.104V106.283H152.523V94.9855H155.468V96.8844C155.551 96.5726 155.771 96.2469 156.129 95.9075C156.495 95.5589 156.959 95.2653 157.518 95.0268C158.078 94.7791 158.683 94.6553 159.335 94.6553ZM171.897 106.613C170.833 106.613 169.892 106.361 169.076 105.856C168.259 105.352 167.617 104.65 167.149 103.751C166.691 102.852 166.461 101.815 166.461 100.641C166.461 99.4668 166.691 98.4302 167.149 97.5312C167.617 96.6322 168.259 95.9304 169.076 95.4259C169.892 94.9121 170.833 94.6553 171.897 94.6553C172.686 94.6553 173.387 94.7929 174.002 95.0681C174.617 95.3341 175.107 95.646 175.474 96.0038C175.841 96.3616 176.057 96.678 176.121 96.9533V87.3486H179.066V106.283H176.162V104.191C176.034 104.512 175.773 104.861 175.378 105.237C174.984 105.613 174.484 105.939 173.878 106.214C173.282 106.48 172.621 106.613 171.897 106.613ZM172.654 104.232C173.296 104.232 173.878 104.081 174.401 103.778C174.924 103.476 175.341 103.058 175.653 102.526C175.965 101.985 176.121 101.357 176.121 100.641C176.121 99.9255 175.965 99.3017 175.653 98.7696C175.341 98.2284 174.924 97.8064 174.401 97.5037C173.878 97.1918 173.296 97.0358 172.654 97.0358C172.066 97.0358 171.521 97.1872 171.016 97.4899C170.521 97.7835 170.122 98.2008 169.819 98.7421C169.516 99.2833 169.365 99.9163 169.365 100.641C169.365 101.366 169.516 101.999 169.819 102.54C170.122 103.081 170.521 103.499 171.016 103.792C171.521 104.086 172.066 104.232 172.654 104.232Z" fill="white"/>
<path d="M77.0463 113.473H86.8299V116.06H79.936V121.247H86.3482V123.82H79.936V131.636H77.0463V113.473ZM94.398 131.966C93.2146 131.966 92.1597 131.71 91.2331 131.196C90.3158 130.673 89.5957 129.967 89.0728 129.077C88.5499 128.178 88.2884 127.16 88.2884 126.022C88.2884 124.885 88.5499 123.862 89.0728 122.953C89.5957 122.045 90.3158 121.33 91.2331 120.807C92.1597 120.275 93.2146 120.009 94.398 120.009C95.5814 120.009 96.6272 120.275 97.5353 120.807C98.4435 121.33 99.1545 122.045 99.6682 122.953C100.191 123.862 100.453 124.885 100.453 126.022C100.453 127.16 100.191 128.178 99.6682 129.077C99.1545 129.967 98.4435 130.673 97.5353 131.196C96.6272 131.71 95.5814 131.966 94.398 131.966ZM94.398 129.49C95.0585 129.49 95.6318 129.338 96.118 129.036C96.6042 128.733 96.9803 128.32 97.2464 127.797C97.5124 127.274 97.6454 126.678 97.6454 126.008C97.6454 125.339 97.5124 124.742 97.2464 124.219C96.9803 123.687 96.6042 123.265 96.118 122.953C95.6318 122.642 95.0585 122.486 94.398 122.486C93.7375 122.486 93.1596 122.642 92.6642 122.953C92.178 123.265 91.7973 123.687 91.5221 124.219C91.2561 124.742 91.1231 125.339 91.1231 126.008C91.1231 126.678 91.2561 127.274 91.5221 127.797C91.7973 128.32 92.178 128.733 92.6642 129.036C93.1596 129.338 93.7375 129.49 94.398 129.49ZM105.705 125.884C105.705 126.985 105.93 127.861 106.379 128.513C106.838 129.164 107.558 129.49 108.54 129.49C109.53 129.49 110.251 129.164 110.7 128.513C111.15 127.861 111.374 126.985 111.374 125.884V120.339H114.291V126.256C114.291 127.393 114.067 128.393 113.617 129.256C113.168 130.109 112.516 130.774 111.663 131.251C110.81 131.728 109.769 131.966 108.54 131.966C107.32 131.966 106.283 131.728 105.43 131.251C104.577 130.774 103.925 130.109 103.476 129.256C103.026 128.393 102.802 127.393 102.802 126.256V120.339H105.705V125.884ZM124.101 120.009C124.862 120.009 125.601 120.165 126.316 120.477C127.032 120.789 127.619 121.289 128.078 121.977C128.545 122.655 128.779 123.541 128.779 124.632V131.636H125.821V125.169C125.821 124.151 125.578 123.403 125.092 122.926C124.615 122.44 123.995 122.197 123.234 122.197C122.729 122.197 122.248 122.339 121.789 122.623C121.33 122.908 120.954 123.293 120.661 123.779C120.376 124.265 120.234 124.825 120.234 125.458V131.636H117.29V120.339H120.234V122.238C120.317 121.926 120.537 121.6 120.895 121.261C121.262 120.912 121.725 120.619 122.284 120.38C122.844 120.133 123.45 120.009 124.101 120.009ZM136.663 131.966C135.599 131.966 134.658 131.714 133.842 131.21C133.026 130.705 132.383 130.003 131.916 129.104C131.457 128.205 131.228 127.169 131.228 125.995C131.228 124.82 131.457 123.784 131.916 122.885C132.383 121.986 133.026 121.284 133.842 120.779C134.658 120.266 135.599 120.009 136.663 120.009C137.452 120.009 138.154 120.146 138.768 120.422C139.383 120.688 139.874 121 140.241 121.357C140.607 121.715 140.823 122.032 140.887 122.307V112.702H143.832V131.636H140.929V129.545C140.8 129.866 140.539 130.214 140.144 130.59C139.75 130.967 139.25 131.292 138.644 131.567C138.048 131.833 137.388 131.966 136.663 131.966ZM137.42 129.586C138.062 129.586 138.644 129.435 139.167 129.132C139.69 128.829 140.108 128.412 140.419 127.88C140.731 127.338 140.887 126.71 140.887 125.995C140.887 125.279 140.731 124.655 140.419 124.123C140.108 123.582 139.69 123.16 139.167 122.857C138.644 122.545 138.062 122.389 137.42 122.389C136.833 122.389 136.287 122.541 135.782 122.843C135.287 123.137 134.888 123.554 134.585 124.096C134.282 124.637 134.131 125.27 134.131 125.995C134.131 126.719 134.282 127.352 134.585 127.893C134.888 128.435 135.287 128.852 135.782 129.146C136.287 129.439 136.833 129.586 137.42 129.586ZM155.396 131.636V129.545C155.322 129.765 155.111 130.068 154.763 130.453C154.423 130.838 153.955 131.187 153.359 131.499C152.772 131.811 152.075 131.966 151.267 131.966C150.213 131.966 149.263 131.714 148.419 131.21C147.575 130.705 146.91 130.003 146.424 129.104C145.938 128.205 145.695 127.169 145.695 125.995C145.695 124.82 145.938 123.784 146.424 122.885C146.91 121.986 147.575 121.284 148.419 120.779C149.263 120.266 150.213 120.009 151.267 120.009C152.056 120.009 152.74 120.146 153.318 120.422C153.896 120.697 154.359 121.013 154.708 121.371C155.065 121.729 155.285 122.041 155.368 122.307V120.339H158.285V131.636H155.396ZM148.598 125.995C148.598 126.719 148.759 127.352 149.08 127.893C149.401 128.435 149.818 128.852 150.332 129.146C150.855 129.439 151.414 129.586 152.011 129.586C152.653 129.586 153.221 129.435 153.717 129.132C154.221 128.829 154.616 128.412 154.9 127.88C155.194 127.338 155.341 126.71 155.341 125.995C155.341 125.279 155.194 124.655 154.9 124.123C154.616 123.582 154.221 123.16 153.717 122.857C153.221 122.545 152.653 122.389 152.011 122.389C151.414 122.389 150.855 122.541 150.332 122.843C149.818 123.137 149.401 123.554 149.08 124.096C148.759 124.637 148.598 125.27 148.598 125.995ZM160.35 120.339H162.469V115.702H165.386V120.339H168.179V122.816H165.386V127.646C165.386 128.251 165.487 128.705 165.689 129.008C165.9 129.311 166.198 129.462 166.583 129.462C166.904 129.462 167.156 129.402 167.34 129.283C167.533 129.164 167.647 129.081 167.684 129.036L168.771 131.168C168.716 131.223 168.555 131.315 168.289 131.444C168.023 131.572 167.679 131.691 167.257 131.801C166.835 131.911 166.354 131.966 165.813 131.966C164.858 131.966 164.06 131.682 163.418 131.113C162.785 130.545 162.469 129.655 162.469 128.444V122.816H160.35V120.339ZM170.913 131.636V120.339H173.844V131.636H170.913ZM172.413 116.954C171.917 116.954 171.491 116.775 171.133 116.417C170.784 116.06 170.61 115.633 170.61 115.138C170.61 114.642 170.784 114.216 171.133 113.858C171.491 113.491 171.917 113.308 172.413 113.308C172.743 113.308 173.045 113.395 173.321 113.569C173.605 113.734 173.83 113.954 173.995 114.229C174.169 114.496 174.256 114.798 174.256 115.138C174.256 115.633 174.077 116.06 173.72 116.417C173.362 116.775 172.926 116.954 172.413 116.954ZM182.657 131.966C181.474 131.966 180.419 131.71 179.492 131.196C178.575 130.673 177.855 129.967 177.332 129.077C176.809 128.178 176.548 127.16 176.548 126.022C176.548 124.885 176.809 123.862 177.332 122.953C177.855 122.045 178.575 121.33 179.492 120.807C180.419 120.275 181.474 120.009 182.657 120.009C183.841 120.009 184.886 120.275 185.795 120.807C186.703 121.33 187.414 122.045 187.927 122.953C188.45 123.862 188.712 124.885 188.712 126.022C188.712 127.16 188.45 128.178 187.927 129.077C187.414 129.967 186.703 130.673 185.795 131.196C184.886 131.71 183.841 131.966 182.657 131.966ZM182.657 129.49C183.318 129.49 183.891 129.338 184.377 129.036C184.863 128.733 185.24 128.32 185.506 127.797C185.772 127.274 185.905 126.678 185.905 126.008C185.905 125.339 185.772 124.742 185.506 124.219C185.24 123.687 184.863 123.265 184.377 122.953C183.891 122.642 183.318 122.486 182.657 122.486C181.997 122.486 181.419 122.642 180.923 122.953C180.437 123.265 180.057 123.687 179.781 124.219C179.515 124.742 179.382 125.339 179.382 126.008C179.382 126.678 179.515 127.274 179.781 127.797C180.057 128.32 180.437 128.733 180.923 129.036C181.419 129.338 181.997 129.49 182.657 129.49ZM197.955 120.009C198.716 120.009 199.455 120.165 200.17 120.477C200.886 120.789 201.473 121.289 201.932 121.977C202.399 122.655 202.633 123.541 202.633 124.632V131.636H199.675V125.169C199.675 124.151 199.432 123.403 198.946 122.926C198.469 122.44 197.849 122.197 197.088 122.197C196.583 122.197 196.102 122.339 195.643 122.623C195.184 122.908 194.808 123.293 194.515 123.779C194.23 124.265 194.088 124.825 194.088 125.458V131.636H191.143V120.339H194.088V122.238C194.171 121.926 194.391 121.6 194.749 121.261C195.116 120.912 195.579 120.619 196.138 120.38C196.698 120.133 197.303 120.009 197.955 120.009Z" fill="white"/>
<path d="M60.9232 88.5942C60.9041 88.2686 60.7662 87.9613 60.5356 87.7307C60.3049 87.5 59.9976 87.3621 59.672 87.3431C51.0602 86.8439 44.1456 89.4627 41.174 94.3676C39.2108 97.6103 39.2141 101.548 41.1474 105.305C40.0468 106.615 39.2426 108.148 38.7898 109.798L36.0829 107.081C37.3839 104.364 37.334 101.532 35.9165 99.1792C33.7203 95.5539 28.6507 93.6106 22.3566 93.9799C22.031 93.9989 21.7237 94.1369 21.493 94.3675C21.2624 94.5981 21.1245 94.9055 21.1055 95.2311C20.7344 101.525 22.6794 106.595 26.3048 108.791C27.5011 109.522 28.8759 109.909 30.2779 109.909C31.6387 109.892 32.9783 109.57 34.1978 108.966L38.3572 113.125V130.544C38.3572 130.897 38.4975 131.236 38.7471 131.485C38.9967 131.735 39.3353 131.875 39.6883 131.875C40.0413 131.875 40.3798 131.735 40.6295 131.485C40.8791 131.236 41.0193 130.897 41.0193 130.544V112.989C41.0132 110.871 41.7338 108.816 43.0608 107.165C44.7727 108.06 46.6713 108.539 48.6028 108.563C50.4702 108.569 52.303 108.059 53.8987 107.089C58.8035 104.121 61.429 97.206 60.9232 88.5942ZM27.6774 106.515C25.1252 104.969 23.681 101.311 23.7159 96.5987C28.4278 96.5588 32.0864 98.0079 33.6321 100.56C34.439 101.891 34.5705 103.444 34.0414 105.042L29.9801 100.981C29.7284 100.742 29.3934 100.611 29.0463 100.615C28.6992 100.62 28.3676 100.759 28.1221 101.005C27.8767 101.25 27.7368 101.582 27.7324 101.929C27.728 102.276 27.8593 102.611 28.0983 102.863L32.1596 106.924C30.5607 107.453 29.0101 107.322 27.6774 106.515ZM52.5194 104.814C50.2899 106.164 47.6695 106.267 45.0074 105.147L53.9403 96.2127C54.1793 95.9611 54.3107 95.626 54.3062 95.2789C54.3018 94.9318 54.1619 94.6002 53.9165 94.3548C53.671 94.1093 53.3394 93.9695 52.9923 93.965C52.6453 93.9606 52.3102 94.0919 52.0585 94.331L43.124 103.254C41.9993 100.592 42.1008 97.9697 43.4567 95.7419C45.7761 91.9152 51.2765 89.7822 58.3193 89.9469C58.4791 96.988 56.3494 102.495 52.5194 104.814Z" fill="white"/>
</svg>
